<svg width="18.000000" height="18.000000" viewBox="0 0 18 18" fill="none" xmlns="http://www.w3.org/2000/svg" xmlns:xlink="http://www.w3.org/1999/xlink">
	<desc>
			Created with Pixso.
	</desc>
	<defs/>
	<path id="Vector" d="M12.95 2.2C11.74 1.48 10.42 1.12 8.99 1.12C7.57 1.12 6.25 1.48 5.04 2.2C3.84 2.92 2.88 3.9 2.18 5.14C1.47 6.38 1.12 7.73 1.12 9.19C1.12 10.95 1.62 12.53 2.62 13.94C3.62 15.34 4.92 16.31 6.5 16.85C6.69 16.89 6.82 16.86 6.91 16.78C7 16.69 7.05 16.59 7.05 16.46L7.04 15.9C7.04 15.54 7.03 15.23 7.03 14.96L6.8 15C6.65 15.03 6.46 15.04 6.23 15.04C6 15.04 5.76 15.01 5.52 14.96C5.27 14.92 5.05 14.81 4.83 14.65C4.62 14.49 4.47 14.27 4.38 14L4.28 13.76C4.21 13.6 4.1 13.42 3.96 13.23C3.81 13.03 3.66 12.9 3.51 12.83L3.44 12.77C3.39 12.74 3.35 12.7 3.31 12.65C3.26 12.6 3.23 12.55 3.21 12.5C3.19 12.45 3.21 12.41 3.26 12.38C3.32 12.35 3.42 12.33 3.56 12.33L3.77 12.36C3.9 12.39 4.07 12.48 4.27 12.61C4.48 12.76 4.64 12.94 4.77 13.16C4.93 13.45 5.12 13.67 5.34 13.82C5.56 13.97 5.79 14.04 6.01 14.04C6.24 14.04 6.43 14.03 6.6 13.99C6.76 13.96 6.91 13.9 7.06 13.83C7.12 13.36 7.29 13 7.56 12.75C7.17 12.71 6.82 12.65 6.51 12.56C6.2 12.48 5.88 12.34 5.55 12.15C5.21 11.96 4.94 11.73 4.72 11.45C4.5 11.17 4.32 10.8 4.18 10.35C4.04 9.89 3.97 9.37 3.97 8.77C3.97 7.92 4.24 7.2 4.78 6.6C4.53 5.97 4.55 5.25 4.86 4.46C5.05 4.4 5.35 4.44 5.74 4.6C6.13 4.76 6.41 4.89 6.59 5C6.77 5.12 6.92 5.21 7.03 5.29C7.66 5.11 8.32 5.02 8.99 5.02C9.67 5.02 10.33 5.11 10.96 5.29L11.35 5.04C11.62 4.87 11.93 4.72 12.3 4.58C12.66 4.44 12.94 4.4 13.13 4.46C13.44 5.25 13.46 5.97 13.21 6.61C13.75 7.2 14.02 7.92 14.02 8.77C14.02 9.37 13.95 9.89 13.81 10.35C13.67 10.81 13.49 11.18 13.27 11.46C13.04 11.74 12.77 11.97 12.44 12.16C12.1 12.35 11.78 12.48 11.47 12.57C11.16 12.65 10.81 12.71 10.42 12.76C10.78 13.07 10.95 13.57 10.95 14.25L10.95 16.47C10.95 16.59 11 16.7 11.08 16.78C11.17 16.86 11.3 16.89 11.49 16.85C13.07 16.31 14.37 15.34 15.37 13.94C16.37 12.53 16.87 10.95 16.87 9.19C16.87 7.73 16.52 6.38 15.81 5.14C15.11 3.9 14.15 2.93 12.95 2.2L12.95 2.2Z" fill="#9C9DA1" fill-opacity="1.000000" fill-rule="nonzero"/>
</svg>
