<svg width="8.731445" height="10.145020" viewBox="0 0 8.73145 10.145" fill="none" xmlns="http://www.w3.org/2000/svg" xmlns:xlink="http://www.w3.org/1999/xlink">
	<desc>
			Created with Pixso.
	</desc>
	<defs/>
	<path id="Vector" d="M1.83 0.18L8.16 4.12C8.34 4.22 8.48 4.38 8.58 4.56C8.68 4.74 8.73 4.94 8.73 5.15C8.72 5.35 8.67 5.56 8.57 5.73C8.47 5.91 8.32 6.06 8.14 6.17L1.82 9.97C1.63 10.08 1.43 10.14 1.21 10.14C1 10.14 0.79 10.09 0.61 9.98C0.42 9.88 0.27 9.73 0.16 9.54C0.05 9.36 -0.01 9.15 0 8.94L0 1.2C0 0.98 0.05 0.77 0.16 0.59C0.27 0.4 0.43 0.25 0.61 0.15C0.8 0.04 1.01 -0.01 1.23 0C1.44 0 1.65 0.06 1.83 0.18Z" fill="#FFFFFF" fill-opacity="1.000000" fill-rule="nonzero"/>
</svg>
