<svg width="18.000000" height="18.000000" viewBox="0 0 18 18" fill="none" xmlns="http://www.w3.org/2000/svg" xmlns:xlink="http://www.w3.org/1999/xlink">
	<desc>
			Created with Pixso.
	</desc>
	<defs/>
	<path id="Vector" d="M4.44 11.08C4.44 11.99 3.7 12.73 2.79 12.73C1.87 12.73 1.13 11.99 1.13 11.08C1.13 10.16 1.87 9.42 2.79 9.42L4.44 9.42L4.44 11.08ZM5.27 11.08C5.27 10.16 6.01 9.42 6.92 9.42C7.84 9.42 8.58 10.16 8.58 11.08L8.58 15.22C8.58 16.13 7.84 16.87 6.92 16.87C6.01 16.87 5.27 16.13 5.27 15.22L5.27 11.08Z" fill="#9C9DA1" fill-opacity="1.000000" fill-rule="nonzero"/>
	<path id="Vector" d="M11.07 13.56C11.98 13.56 12.72 14.3 12.72 15.22C12.72 16.13 11.98 16.87 11.07 16.87C10.15 16.87 9.41 16.13 9.41 15.22L9.41 13.56L11.07 13.56ZM11.07 12.73C10.15 12.73 9.41 11.99 9.41 11.08C9.41 10.16 10.15 9.42 11.07 9.42L15.22 9.42C16.13 9.42 16.87 10.16 16.87 11.08C16.87 11.99 16.13 12.73 15.22 12.73L11.07 12.73Z" fill="#9C9DA1" fill-opacity="1.000000" fill-rule="nonzero"/>
	<path id="Vector" d="M13.55 6.93C13.55 6.01 14.29 5.27 15.2 5.27C16.12 5.27 16.86 6.01 16.86 6.93C16.86 7.84 16.12 8.58 15.2 8.58L13.55 8.58L13.55 6.93ZM12.72 6.93C12.72 7.84 11.98 8.58 11.07 8.58C10.15 8.58 9.41 7.84 9.41 6.93L9.41 2.78C9.41 1.86 10.15 1.12 11.07 1.12C11.98 1.12 12.72 1.86 12.72 2.78L12.72 6.93Z" fill="#9C9DA1" fill-opacity="1.000000" fill-rule="nonzero"/>
	<path id="Vector" d="M6.92 4.43C6.01 4.43 5.27 3.69 5.27 2.78C5.27 1.86 6.01 1.12 6.92 1.12C7.84 1.12 8.58 1.86 8.58 2.78L8.58 4.43L6.92 4.43ZM6.92 5.27C7.84 5.27 8.58 6.01 8.58 6.93C8.58 7.84 7.84 8.58 6.92 8.58L2.77 8.58C1.86 8.58 1.12 7.84 1.12 6.93C1.12 6.01 1.86 5.27 2.77 5.27L6.92 5.27Z" fill="#9C9DA1" fill-opacity="1.000000" fill-rule="nonzero"/>
</svg>
