<svg width="18.000000" height="18.000000" viewBox="0 0 18 18" fill="none" xmlns="http://www.w3.org/2000/svg" xmlns:xlink="http://www.w3.org/1999/xlink">
	<desc>
			Created with Pixso.
	</desc>
	<defs/>
	<path id="Vector" d="M15.13 3.82C15.81 4 16.34 4.53 16.52 5.21C17 7.15 16.97 10.81 16.53 12.77C16.35 13.45 15.82 13.98 15.14 14.16C13.22 14.64 4.64 14.58 2.84 14.16C2.16 13.98 1.63 13.45 1.45 12.77C1 10.93 1.03 7.03 1.44 5.22C1.62 4.54 2.15 4.01 2.83 3.83C5.39 3.3 14.22 3.47 15.13 3.82ZM7.47 6.63L7.47 11.35L11.58 8.99L7.47 6.63Z" fill="#9C9DA1" fill-opacity="1.000000" fill-rule="nonzero"/>
</svg>
